# xmcd
#
# Track frame offsets:
#	150
#	14637
#	28794
#	46034
#	57831
#	70527
#	86163
#	102698
#	117310
#	140877
#	157828
#
# Disc length: 2301 seconds
#
# Revision: 3779632668
# Processed by: cddbd v1.5.2PL0 Copyright (c) Steve Scherf et al.
# Submitted via: EZCDAudioConverter 8.0.3.1
#
DISCID=9508fb0b
DTITLE=Toby Keith - Clancy's Tavern
DYEAR=2011
DGENRE=Country
TTITLE0=Made In America
TTITLE1=I Need To Hear A Country Song
TTITLE2=Clancy's Tavern
TTITLE3=Tryin' To Fall In Love
TTITLE4=Just Another Sundown
TTITLE5=Beers Ago
TTITLE6=South Of You
TTITLE7=Club Zydeco Moon
TTITLE8=I Won't Let You Down
TTITLE9=Red Solo Cup
TTITLE10=Chill-Axin'
EXTD=
EXTT0=
EXTT1=
EXTT2=
EXTT3=
EXTT4=
EXTT5=
EXTT6=
EXTT7=
EXTT8=
EXTT9=
EXTT10=
PLAYORDER=
